<svg width="111" height="24" viewBox="0 0 111 24" fill="none" xmlns="http://www.w3.org/2000/svg">
<g clip-path="url(#clip0_1645_5201)">
<path d="M106.805 21.1612C106.57 21.1616 106.453 21.1618 106.351 21.1134C106.248 21.0649 106.174 20.9742 106.025 20.7926L98.8625 12.048C98.8551 12.0389 98.844 12.0337 98.8323 12.0337C98.8108 12.0337 98.7934 12.0511 98.7934 12.0726V20.1557C98.7934 20.6301 98.7934 20.8672 98.646 21.0146C98.4986 21.162 98.2615 21.162 97.7871 21.162H95.0526C94.5782 21.162 94.341 21.162 94.1937 21.0146C94.0463 20.8672 94.0463 20.6301 94.0463 20.1557V2.34003C94.0463 1.86568 94.0463 1.6285 94.1937 1.48114C94.341 1.33378 94.5782 1.33378 95.0526 1.33378H97.7871C98.2615 1.33378 98.4986 1.33378 98.646 1.48114C98.7934 1.6285 98.7934 1.86568 98.7934 2.34003V9.33747C98.7934 9.37014 98.8199 9.39663 98.8525 9.39663C98.8694 9.39663 98.8855 9.38943 98.8967 9.37685L105.772 1.67018C105.919 1.50454 105.993 1.42172 106.091 1.37775C106.19 1.33378 106.3 1.33378 106.522 1.33378H109.812C110.815 1.33378 111.316 1.33378 111.447 1.63843C111.577 1.94308 111.232 2.30642 110.542 3.0331L104.111 9.802C103.813 10.1153 103.665 10.2719 103.66 10.4655C103.655 10.6591 103.796 10.823 104.077 11.1508L111.244 19.4935C111.859 20.2093 112.166 20.5672 112.032 20.8602C111.898 21.1531 111.426 21.1539 110.482 21.1554L106.805 21.1612ZM56.7568 21.162C56.2825 21.162 56.0453 21.162 55.8979 21.0146C55.7506 20.8672 55.7506 20.6301 55.7506 20.1557V2.34003C55.7506 1.86568 55.7506 1.6285 55.8979 1.48114C56.0453 1.33378 56.2825 1.33378 56.7568 1.33378H59.6355C60.1098 1.33378 60.347 1.33378 60.4944 1.48114C60.6417 1.6285 60.6417 1.86568 60.6417 2.34003V15.9781C60.6417 16.4525 60.6417 16.6896 60.7891 16.837C60.9364 16.9844 61.1736 16.9844 61.648 16.9844H67.4239C67.8983 16.9844 68.1354 16.9844 68.2828 17.1317C68.4302 17.2791 68.4302 17.5163 68.4302 17.9906V20.1557C68.4302 20.6301 68.4302 20.8672 68.2828 21.0146C68.1354 21.162 67.8983 21.162 67.4239 21.162H56.7568ZM42.1706 21.162C41.836 21.162 41.6687 21.162 41.54 21.0735C41.4113 20.9851 41.3513 20.8289 41.2313 20.5166L34.3856 2.70095C34.1471 2.08046 34.0279 1.77022 34.1778 1.552C34.3278 1.33378 34.6601 1.33378 35.3248 1.33378H38.5926C38.9431 1.33378 39.1184 1.33378 39.2502 1.42896C39.3821 1.52414 39.4373 1.69049 39.5476 2.02319L43.9634 15.334C43.9741 15.3663 44.0042 15.388 44.0382 15.388C44.0722 15.388 44.1024 15.3662 44.113 15.3339L48.5014 2.02492C48.6114 1.69142 48.6664 1.52467 48.7983 1.42922C48.9303 1.33378 49.1059 1.33378 49.4571 1.33378H52.6279C53.2966 1.33378 53.6309 1.33378 53.7807 1.55329C53.9305 1.77281 53.8087 2.08414 53.5649 2.7068L46.5915 20.5225C46.4703 20.8321 46.4097 20.9869 46.2814 21.0744C46.1531 21.162 45.9869 21.162 45.6545 21.162H42.1706ZM30.8164 21.162C30.487 21.162 30.3223 21.162 30.1947 21.0757C30.067 20.9894 30.0056 20.8366 29.8828 20.531L28.8255 17.9005C28.7026 17.5948 28.6412 17.442 28.5136 17.3557C28.3859 17.2695 28.2212 17.2695 27.8918 17.2695H21.4777C21.1418 17.2695 20.9739 17.2695 20.8448 17.3585C20.7158 17.4475 20.6562 17.6045 20.537 17.9186L19.552 20.5129C19.4328 20.8269 19.3732 20.9839 19.2442 21.073C19.1152 21.162 18.9472 21.162 18.6113 21.162H15.5375C14.8498 21.162 14.5059 21.162 14.3567 20.9363C14.2075 20.7106 14.3423 20.3942 14.6118 19.7614L22.1993 1.94574C22.3257 1.64898 22.3888 1.5006 22.515 1.41719C22.6412 1.33378 22.8025 1.33378 23.1251 1.33378H26.5119C26.8357 1.33378 26.9976 1.33378 27.124 1.41768C27.2504 1.50159 27.3133 1.65075 27.4391 1.94906L34.9514 19.7647C35.2177 20.3963 35.3509 20.7121 35.2016 20.937C35.0523 21.162 34.7096 21.162 34.0242 21.162H30.8164ZM22.6877 12.072C22.4551 12.69 22.3388 12.999 22.4888 13.2158C22.6389 13.4326 22.9691 13.4326 23.6294 13.4326H25.7959C26.4516 13.4326 26.7795 13.4326 26.9296 13.2174C27.0798 13.0022 26.9666 12.6945 26.7403 12.0791L25.6696 9.16744C25.278 8.10249 25.0822 7.57002 24.7325 7.5687C24.3829 7.56738 24.1831 8.09836 23.7834 9.16033L22.6877 12.072ZM1.00625 21.162C0.5319 21.162 0.294724 21.162 0.147362 21.0146C0 20.8672 0 20.6301 0 20.1557V2.34003C0 1.86568 0 1.6285 0.147362 1.48114C0.294724 1.33378 0.531899 1.33378 1.00625 1.33378H7.39123C8.42949 1.32724 9.46499 1.43518 10.4764 1.6554C11.3738 1.84568 12.2235 2.19723 12.9785 2.69067C13.6956 3.17497 14.272 3.82025 14.6549 4.56752C15.0903 5.46697 15.2999 6.44826 15.2673 7.43574C15.3006 8.4453 15.0766 9.44775 14.614 10.3597C14.2032 11.1256 13.5977 11.7846 12.8509 12.2786C12.0759 12.7793 11.2083 13.14 10.2924 13.3422C9.30477 13.5694 8.29127 13.6826 7.2744 13.6794H5.8672C5.39285 13.6794 5.15568 13.6794 5.00831 13.8267C4.86095 13.9741 4.86095 14.2113 4.86095 14.6856V20.1557C4.86095 20.6301 4.86095 20.8672 4.71359 21.0146C4.56623 21.162 4.32905 21.162 3.8547 21.162H1.00625ZM4.86095 8.87101C4.86095 9.34536 4.86095 9.58253 5.00831 9.72989C5.15568 9.87726 5.39285 9.87726 5.8672 9.87726H6.90542C7.34436 9.87928 7.7825 9.84194 8.21387 9.76577C8.6102 9.69878 8.99065 9.56602 9.33736 9.37376C9.6609 9.19413 9.92925 8.93882 10.1162 8.63274C10.3178 8.27569 10.4158 7.87519 10.4005 7.47137C10.4169 7.07183 10.3188 6.67548 10.1162 6.32373C9.93207 6.03 9.66708 5.78818 9.34904 5.62375C9.00913 5.44991 8.63831 5.33569 8.25476 5.28662C7.83562 5.22984 7.41263 5.20171 6.98915 5.20252H5.8672C5.39285 5.20252 5.15568 5.20252 5.00831 5.34988C4.86095 5.49724 4.86095 5.73442 4.86095 6.20877V8.87101Z" fill="#8338EC"/>
<path d="M72.8263 18.2071C73.8076 19.181 74.9854 19.9622 76.2912 20.5054C77.619 21.0515 79.0531 21.3334 80.5028 21.3332H80.6002C81.4584 21.337 82.3136 21.2452 83.148 21.0602C83.328 21.0203 83.398 20.8045 83.2802 20.6626L73.9109 9.37502C73.84 9.28929 73.8067 9.18142 73.8177 9.07341C73.8288 8.96541 73.8833 8.86542 73.9703 8.79389C74.0442 8.73428 74.1386 8.70184 74.236 8.70254H78.0563C78.1161 8.70135 78.1751 8.68911 78.2299 8.66651C78.2847 8.64392 78.3342 8.61137 78.3756 8.57081C78.417 8.53025 78.4495 8.48245 78.4712 8.4301C78.4929 8.37775 78.5034 8.32191 78.5021 8.26575C78.5021 8.16689 78.468 8.07072 78.4048 7.99163L73.9973 2.39508C73.9125 2.28741 73.757 2.26717 73.6497 2.35246C73.3711 2.5739 73.1051 2.80891 72.8526 3.0565C71.8689 4.04326 71.0956 5.19769 70.5745 6.45744C69.4713 9.15291 69.4713 12.1364 70.5745 14.8319C71.0795 16.0858 71.8449 17.2331 72.8263 18.2071Z" fill="#8338EC"/>
<path d="M81.7636 13.7299C81.7639 13.8198 81.78 13.909 81.8113 13.994L84.2283 20.5022C84.276 20.6308 84.4181 20.6978 84.5468 20.6504C84.6696 20.6051 84.7916 20.558 84.911 20.5081C86.2167 19.9648 87.3945 19.1836 88.3758 18.2096C89.3572 17.2357 90.1226 16.0885 90.6278 14.8347C91.731 12.1392 91.731 9.15564 90.6278 6.46018C89.9215 4.69665 88.7005 3.15543 87.1044 2.01292C85.6351 0.961162 83.9026 0.286428 82.0773 0.0510659C81.8766 0.0251902 81.7381 0.239271 81.8376 0.415447L88.4597 12.1391C88.5325 12.267 88.5506 12.4162 88.51 12.5562C88.4695 12.6962 88.3734 12.8163 88.2416 12.892C88.1587 12.9378 88.0642 12.9618 87.968 12.9615H82.5424C82.3307 12.967 82.13 13.0509 81.9841 13.1949C81.8381 13.3389 81.7588 13.5312 81.7636 13.7299Z" fill="#8338EC"/>
</g>
<defs>
<clipPath id="clip0_1645_5201">
<rect width="111" height="24" fill="white"/>
</clipPath>
</defs>
</svg>
