<svg xmlns="http://www.w3.org/2000/svg" width="31.542" height="32.379" viewBox="0 0 31.542 32.379"><defs><style>.a{fill:#fff;}</style></defs><g transform="translate(-139 -10954)"><path class="a" d="M322.276,522.4a15.492,15.492,0,0,0-13.112-9.8l9.965,18.425a.853.853,0,0,1-.317,1.142.8.8,0,0,1-.4.106h-7.884a1.15,1.15,0,0,0-1.134,1.166,1.193,1.193,0,0,0,.069.4l3.635,10.222c.292-.106.581-.218.867-.341a15.5,15.5,0,0,0,8.308-8.609,17.4,17.4,0,0,0,0-12.708Z" transform="translate(-152.937 10441.403)"/><path class="a" d="M280.549,530.026a.64.64,0,0,1,.086-.883.6.6,0,0,1,.386-.142h5.545a.655.655,0,0,0,.648-.662.678.678,0,0,0-.137-.411l-6.627-8.786a15.061,15.061,0,0,0-1.441,1.3,16,16,0,0,0-3.31,5.162,17.4,17.4,0,0,0,0,12.708,15.468,15.468,0,0,0,14.569,9.867,16.1,16.1,0,0,0,4.262-.558Z" transform="translate(-135.498 10438.203)"/></g></svg>